<svg width="256" height="256" viewBox="0 0 256 256" fill="none" xmlns="http://www.w3.org/2000/svg">
<rect width="256" height="256" rx="50" fill="#182434"/>
<path fill-rule="evenodd" clip-rule="evenodd" d="M162.537 161.913V66.487C162.537 61.0181 159.52 58 154.051 58H135.381C129.912 58 126.894 61.0181 126.894 66.487C126.894 66.487 126.894 87.3172 126.894 111.805C126.894 113.082 139.191 119.008 139.512 120.261C148.881 156.868 141.548 186.166 132.666 187.533C147.188 188.252 148.785 195.234 137.969 190.463C139.623 170.931 146.08 170.969 164.642 189.745C164.801 189.906 168.448 197.557 168.675 197.557C189.545 197.557 212.514 197.557 212.514 197.557C217.983 197.557 221 194.54 221 189.071V170.4C221 164.931 217.983 161.913 212.514 161.913H162.537Z" fill="#02A9FF"/>
<path fill-rule="evenodd" clip-rule="evenodd" d="M85.0331 58L36 197.557H74.0954L82.3932 173.417H123.882L131.992 197.557H169.899L121.053 58H85.0331ZM91.068 142.489L102.949 103.827L115.961 142.489H91.068Z" fill="#FEFEFE"/>
</svg>