<svg width="256" height="256" viewBox="0 0 256 256" fill="none" xmlns="http://www.w3.org/2000/svg" id="deno">
<style>
#deno {
    rect {fill: #15191C}

    @media (prefers-color-scheme: light) {
        rect {fill: #F4F2ED}
    }
}
</style>
<rect width="256" height="256" rx="50" fill="#15191C"/>
<path fill-rule="evenodd" clip-rule="evenodd" d="M47.9964 165.384C42.7667 154.098 39.8478 141.527 39.8478 128.279C39.8478 124.851 40.0429 121.468 40.4237 118.14C40.8099 114.779 41.3821 111.479 42.1291 108.252C46.3268 90.1498 56.0906 74.1702 69.5156 62.2173C80.7924 52.1908 94.6068 45.0374 109.75 41.7949C115.726 40.5184 121.925 39.8467 128.28 39.8467C130.507 39.849 132.751 39.9348 135.008 40.1068C145.711 40.9241 155.825 43.6183 165.052 47.8424C172.495 51.2542 179.384 55.6684 185.546 60.9126C201.024 74.0976 211.818 92.4647 215.408 113.075C216.266 118.015 216.713 123.096 216.713 128.279C216.711 130.51 216.625 132.757 216.452 135.018C215.8 143.56 213.952 151.727 211.085 159.368C207.082 170.01 201.086 179.679 193.552 187.92C183.753 197.925 171.3 202.377 160.9 202.192C153.337 202.057 145.937 199.048 140.824 194.645C133.519 188.355 130.569 181.165 129.558 173.141C129.306 171.147 129.454 165.712 130.491 161.949C131.265 159.144 133.227 153.727 136.097 151.358C132.74 149.912 128.42 146.764 127.058 145.252C126.723 144.881 126.767 144.299 127.066 143.899C127.366 143.499 127.892 143.341 128.363 143.51C131.248 144.501 134.763 145.478 138.469 146.098C143.343 146.912 149.404 147.939 155.545 148.241C170.517 148.976 186.155 142.255 191.009 128.885C195.863 115.514 193.98 102.289 176.567 94.3562C159.155 86.4231 151.111 76.9911 137.042 71.3021C127.853 67.5859 117.625 69.7919 107.124 75.5952C78.8401 91.2258 53.4998 140.612 65.1813 186.367C65.3483 186.993 65.0665 187.652 64.4983 187.964C63.9664 188.256 63.3116 188.173 62.8705 187.769C59.471 184.034 56.3869 180.007 53.66 175.73C51.5502 172.42 49.6564 168.964 47.9964 165.384Z" fill="black"/>
<path fill-rule="evenodd" clip-rule="evenodd" d="M132.801 31.1069C186.433 33.6018 227.949 79.1694 225.454 132.801C222.96 186.433 177.392 227.949 123.76 225.454C70.1287 222.959 28.612 177.392 31.1068 123.76C33.6016 70.1288 79.1693 28.6121 132.801 31.1069ZM155.545 148.242C149.405 147.94 143.343 146.913 138.47 146.099C134.764 145.479 131.249 144.502 128.363 143.511C127.892 143.342 127.367 143.5 127.067 143.9C126.767 144.3 126.724 144.882 127.058 145.253C128.42 146.764 132.741 149.913 136.097 151.358C133.228 153.728 131.266 159.145 130.492 161.95C129.454 165.713 129.306 171.148 129.558 173.142C130.569 181.166 133.52 188.356 140.825 194.646C145.938 199.049 153.338 202.058 160.9 202.193C171.337 202.379 183.84 197.895 193.655 187.816C206.486 173.749 214.893 155.457 216.453 135.018C220.169 86.3516 183.675 43.8234 135.009 40.1073C86.3422 36.3912 43.8139 72.8856 40.0978 121.552C38.1733 146.755 47.0331 170.313 62.7847 187.684C63.2233 188.161 63.9308 188.277 64.4987 187.965C65.0666 187.654 65.3485 186.994 65.1814 186.368C53.5001 140.613 78.8405 91.2263 107.125 75.5957C117.626 69.7925 127.853 67.5865 137.043 71.3025C151.112 76.9915 159.155 86.4235 176.568 94.3568C193.981 102.29 195.864 115.515 191.01 128.886C186.156 142.256 170.517 148.977 155.545 148.242ZM125.076 77.4671C119.37 77.9136 115.623 84.9768 115.132 89.5207C114.64 94.064 116.895 101.563 124.33 101.417C133.038 101.245 135.684 93.7914 134.728 86.5792C134.011 81.1627 129.847 77.0932 125.076 77.4671Z" fill="white"/>
<path fill-rule="evenodd" clip-rule="evenodd" d="M125.116 77.44C129.887 77.0661 134.049 81.138 134.766 86.5529C135.723 93.7665 133.076 101.218 124.37 101.39C116.934 101.538 114.68 94.0383 115.173 89.4951C115.663 84.9516 119.408 77.888 125.116 77.44Z" fill="black"/>
</svg>