<svg width="256" height="256" viewBox="0 0 256 256" fill="none" xmlns="http://www.w3.org/2000/svg">
<rect width="256" height="256" rx="50" fill="#5865F2"/>
<path d="M185.771 74.697C175.09 69.6998 163.67 66.068 151.73 64C150.264 66.6511 148.55 70.2168 147.369 73.0534C134.677 71.1446 122.102 71.1446 109.643 73.0534C108.462 70.2168 106.71 66.6511 105.231 64C93.278 66.068 81.8446 69.7131 71.1638 74.7235C49.6207 107.278 43.7807 139.024 46.7007 170.319C60.9892 180.989 74.8366 187.471 88.4502 191.713C91.8115 187.087 94.8093 182.169 97.3918 176.986C92.4733 175.118 87.7624 172.811 83.3111 170.134C84.492 169.259 85.6471 168.344 86.7631 167.403C113.913 180.101 143.411 180.101 170.236 167.403C171.365 168.344 172.52 169.259 173.688 170.134C169.224 172.824 164.5 175.131 159.582 177C162.164 182.169 165.149 187.1 168.523 191.726C182.15 187.484 196.01 181.003 210.299 170.319C213.725 134.04 204.446 102.586 185.771 74.697ZM101.091 151.073C92.9406 151.073 86.2569 143.464 86.2569 134.199C86.2569 124.934 92.7979 117.312 101.091 117.312C109.384 117.312 116.067 124.92 115.924 134.199C115.937 143.464 109.384 151.073 101.091 151.073ZM155.909 151.073C147.759 151.073 141.075 143.464 141.075 134.199C141.075 124.934 147.616 117.312 155.909 117.312C164.202 117.312 170.885 124.92 170.743 134.199C170.743 143.464 164.202 151.073 155.909 151.073Z" fill="white"/>
</svg>