<svg width="256" height="256" viewBox="0 0 256 256" fill="none" xmlns="http://www.w3.org/2000/svg" id="firebase">
<style>
#firebase {
    rect {fill: #15191C}

    @media (prefers-color-scheme: light) {
        rect {fill: #F4F2ED}
    }
}
</style>
<rect width="256" height="256" rx="50" fill="#15191C"/>
<path d="M99.981 216.985C107.864 220.158 116.417 222.041 125.396 222.354C137.549 222.779 149.106 220.266 159.438 215.493C147.048 210.625 135.828 203.507 126.252 194.657C120.044 204.596 110.863 212.446 99.981 216.985Z" fill="#FF9100"/>
<path d="M126.25 194.66C104.39 174.443 91.1295 145.181 92.2502 113.087C92.2867 112.044 92.3416 111.003 92.4059 109.962C88.491 108.949 84.4038 108.331 80.1976 108.184C74.177 107.974 68.3465 108.721 62.842 110.271C57.0067 120.493 53.4853 132.221 53.0466 144.783C51.9144 177.204 71.5341 205.532 99.9792 216.988C110.861 212.449 120.042 204.608 126.25 194.66Z" fill="#FFC400"/>
<path d="M126.251 194.659C131.333 186.525 134.415 176.99 134.773 166.717C135.717 139.694 117.55 116.447 92.4069 109.961C92.3426 111.002 92.2876 112.043 92.2512 113.086C91.1304 145.18 104.391 174.442 126.251 194.659Z" fill="#FF9100"/>
<path d="M131.962 34C117.642 45.4722 106.334 60.5992 99.4922 78.0251C95.5753 88.0066 93.1139 98.7282 92.3952 109.967C117.539 116.454 135.705 139.701 134.762 166.724C134.403 176.997 131.313 186.523 126.239 194.665C135.815 203.525 147.036 210.634 159.425 215.502C184.293 204.007 201.936 179.272 202.958 150.015C203.62 131.059 196.337 114.165 186.046 99.9051C175.178 84.8235 131.962 34 131.962 34Z" fill="#DD2C00"/>
</svg>