<svg width="256" height="256" viewBox="0 0 256 256" fill="none" xmlns="http://www.w3.org/2000/svg" id="github">
<style>
#github {
    rect {fill: #15191C}
    path {fill: white}

    @media (prefers-color-scheme: light) {
        rect {fill: #F4F2ED}
        path {fill: #15191C}
    }
}
</style>
<rect width="256" height="256" rx="50" fill="#15191C"/>
<path d="M127.501 38C76.4207 38 35 79.413 35 130.501C35 171.37 61.5043 206.043 98.2577 218.274C102.88 219.131 104.578 216.268 104.578 213.825C104.578 211.619 104.492 204.333 104.452 196.603C78.7184 202.199 73.2882 185.689 73.2882 185.689C69.0804 174.997 63.0177 172.155 63.0177 172.155C54.6251 166.413 63.6503 166.532 63.6503 166.532C72.939 167.184 77.8299 176.064 77.8299 176.064C86.0801 190.205 99.4693 186.117 104.748 183.753C105.578 177.774 107.975 173.694 110.621 171.384C90.075 169.045 68.477 161.113 68.477 125.67C68.477 115.571 72.0904 107.319 78.0076 100.841C77.0472 98.5112 73.881 89.103 78.9037 76.3618C78.9037 76.3618 86.6713 73.8757 104.348 85.8434C111.727 83.7939 119.639 82.7661 127.501 82.7309C135.362 82.7661 143.281 83.7939 150.673 85.8434C168.329 73.8757 176.086 76.3618 176.086 76.3618C181.12 89.103 177.953 98.5112 176.992 100.841C182.923 107.319 186.512 115.571 186.512 125.67C186.512 161.198 164.873 169.021 144.275 171.31C147.593 174.181 150.549 179.81 150.549 188.44C150.549 200.817 150.442 210.778 150.442 213.825C150.442 216.286 152.107 219.171 156.796 218.262C193.529 206.017 220 171.356 220 130.501C220 79.413 178.585 38 127.501 38ZM69.6446 169.769C69.4408 170.229 68.7178 170.367 68.0591 170.051C67.3882 169.75 67.0114 169.122 67.2289 168.662C67.4281 168.188 68.1526 168.057 68.822 168.374C69.4945 168.676 69.8774 169.308 69.6446 169.769ZM74.1946 173.829C73.7534 174.239 72.8911 174.048 72.3059 173.402C71.7009 172.757 71.5874 171.895 72.0348 171.479C72.4897 171.071 73.3261 171.262 73.9326 171.907C74.5376 172.56 74.6556 173.415 74.1946 173.829ZM77.3161 179.024C76.7493 179.418 75.8226 179.049 75.2497 178.225C74.6829 177.403 74.6829 176.417 75.2619 176.021C75.8363 175.626 76.7493 175.981 77.3299 176.798C77.895 177.634 77.895 178.621 77.3161 179.024ZM82.5951 185.04C82.0881 185.599 81.0082 185.449 80.2178 184.686C79.4091 183.94 79.1838 182.882 79.6924 182.322C80.2056 181.762 81.2916 181.92 82.0881 182.676C82.8908 183.42 83.1358 184.487 82.5951 185.04ZM89.4178 187.07C89.1942 187.795 88.1541 188.125 87.1064 187.817C86.0602 187.499 85.3755 186.651 85.5869 185.919C85.8044 185.19 86.849 184.847 87.9045 185.176C88.9491 185.491 89.6353 186.334 89.4178 187.07ZM97.1824 187.932C97.2084 188.695 96.32 189.327 95.2202 189.341C94.1143 189.366 93.2197 188.748 93.2074 187.998C93.2074 187.227 94.076 186.601 95.1819 186.583C96.2817 186.561 97.1824 187.174 97.1824 187.932ZM104.81 187.64C104.942 188.384 104.178 189.149 103.086 189.352C102.012 189.548 101.017 189.089 100.881 188.35C100.748 187.587 101.526 186.823 102.598 186.625C103.692 186.436 104.671 186.883 104.81 187.64Z" fill="white"/>
</svg>