<svg width="256" height="256" viewBox="0 0 256 256" fill="none" xmlns="http://www.w3.org/2000/svg">
<rect width="256" height="256" rx="50" fill="#00B4E0"/>
<path d="M43.0934 113.624C42.7038 113.624 42.6065 113.43 42.8013 113.138L44.8462 110.509C45.0409 110.217 45.5278 110.021 45.9173 110.021H80.6808C81.0703 110.021 81.1677 110.313 80.9729 110.606L79.3175 113.138C79.1227 113.43 78.6359 113.722 78.3437 113.722L43.0934 113.624Z" fill="white"/>
<path d="M28.3895 122.583C28 122.583 27.9027 122.389 28.0973 122.097L30.1423 119.467C30.337 119.174 30.8239 118.98 31.2134 118.98H75.6172C76.0068 118.98 76.2016 119.272 76.1041 119.564L75.3251 121.901C75.2278 122.291 74.8382 122.486 74.4488 122.486L28.3895 122.583Z" fill="white"/>
<path d="M51.9547 131.542C51.5652 131.542 51.4678 131.25 51.6625 130.958L53.0258 128.523C53.2206 128.231 53.6101 127.939 53.9996 127.939H73.475C73.8645 127.939 74.0592 128.231 74.0592 128.621L73.8645 130.958C73.8645 131.347 73.475 131.639 73.1829 131.639L51.9547 131.542Z" fill="white"/>
<path d="M153.032 111.872C146.897 113.43 142.71 114.598 136.672 116.157C135.212 116.546 135.115 116.643 133.849 115.182C132.388 113.527 131.317 112.456 129.272 111.482C123.137 108.463 117.197 109.34 111.647 112.943C105.026 117.228 101.617 123.557 101.715 131.444C101.811 139.234 107.168 145.661 114.86 146.732C121.482 147.609 127.032 145.272 131.415 140.306C132.291 139.234 133.07 138.067 134.043 136.703C130.538 136.703 126.156 136.703 115.25 136.703C113.205 136.703 112.718 135.437 113.4 133.781C114.666 130.763 117.002 125.699 118.366 123.168C118.658 122.583 119.34 121.61 120.8 121.61C125.767 121.61 144.073 121.61 156.246 121.61C156.05 124.239 156.05 126.868 155.661 129.497C154.59 136.508 151.961 142.934 147.676 148.583C140.665 157.833 131.511 163.579 119.923 165.137C110.381 166.402 101.52 164.552 93.7294 158.71C86.5235 153.257 82.4337 146.051 81.3626 137.092C80.0967 126.478 83.2127 116.936 89.6396 108.561C96.5534 99.5055 105.707 93.76 116.906 91.7151C126.059 90.0596 134.822 91.1308 142.71 96.4865C147.871 99.8944 151.571 104.569 154.006 110.217C154.59 111.092 154.2 111.58 153.032 111.872Z" fill="white"/>
<path d="M185.263 165.721C176.402 165.527 168.32 162.994 161.503 157.152C155.759 152.186 152.156 145.857 150.987 138.358C149.235 127.354 152.252 117.617 158.875 108.95C165.983 99.6022 174.552 94.7337 186.14 92.6888C196.072 90.936 205.42 91.9098 213.892 97.655C221.586 102.913 226.357 110.021 227.622 119.37C229.278 132.516 225.48 143.227 216.425 152.38C209.997 158.904 202.11 162.994 193.053 164.844C190.425 165.331 187.796 165.429 185.263 165.721ZM208.439 126.381C208.342 125.114 208.342 124.141 208.147 123.168C206.395 113.527 197.533 108.074 188.282 110.217C179.227 112.261 173.383 118.007 171.241 127.16C169.489 134.756 173.189 142.448 180.2 145.564C185.556 147.901 190.911 147.609 196.072 144.98C203.766 140.988 207.952 134.756 208.439 126.381Z" fill="white"/>
</svg>