<svg width="256" height="256" viewBox="0 0 256 256" fill="none" xmlns="http://www.w3.org/2000/svg">
<rect width="256" height="256" rx="50" fill="url(#radialGradient)"/>
<path d="M127.508 35C102.387 35 99.2342 35.1099 89.3674 35.5589C79.52 36.0098 72.7982 37.5688 66.9167 39.8563C60.8328 42.2189 55.672 45.3794 50.5306 50.5228C45.3852 55.6643 42.2247 60.8251 39.8544 66.907C37.5611 72.7905 36.0002 79.5141 35.5569 89.3578C35.1156 99.2246 35 102.379 35 127.501C35 152.623 35.1117 155.766 35.5589 165.632C36.0118 175.48 37.5708 182.202 39.8563 188.083C42.2208 194.168 45.3813 199.328 50.5247 204.469C55.6643 209.615 60.8251 212.783 66.9051 215.146C72.7905 217.433 79.5141 218.992 89.3598 219.443C99.2265 219.892 102.377 220.002 127.497 220.002C152.621 220.002 155.764 219.892 165.63 219.443C175.478 218.992 182.207 217.433 188.093 215.146C194.175 212.783 199.328 209.615 204.467 204.469C209.613 199.328 212.773 194.168 215.144 188.086C217.417 182.202 218.979 175.478 219.441 165.634C219.884 155.768 220 152.623 220 127.501C220 102.379 219.884 99.2265 219.441 89.3598C218.979 79.5122 217.417 72.7905 215.144 66.909C212.773 60.8251 209.613 55.6643 204.467 50.5228C199.323 45.3775 194.177 42.217 188.088 39.8563C182.191 37.5688 175.465 36.0098 165.617 35.5589C155.75 35.1099 152.609 35 127.48 35H127.508ZM119.21 51.6694C121.673 51.6656 124.422 51.6694 127.508 51.6694C152.207 51.6694 155.133 51.7581 164.887 52.2013C173.905 52.6138 178.801 54.1207 182.061 55.3868C186.378 57.0634 189.456 59.0676 192.691 62.3052C195.929 65.5427 197.932 68.6261 199.613 72.9428C200.879 76.1995 202.388 81.0944 202.799 90.1133C203.242 99.8643 203.338 102.793 203.338 127.48C203.338 152.166 203.242 155.096 202.799 164.846C202.386 173.865 200.879 178.76 199.613 182.017C197.937 186.334 195.929 189.407 192.691 192.643C189.454 195.881 186.38 197.884 182.061 199.561C178.804 200.833 173.905 202.336 164.887 202.749C155.135 203.192 152.207 203.288 127.508 203.288C102.809 203.288 99.8817 203.192 90.1306 202.749C81.1117 202.333 76.2169 200.826 72.9543 199.559C68.6376 197.882 65.5542 195.879 62.3167 192.641C59.0791 189.404 57.0749 186.328 55.3945 182.009C54.1284 178.752 52.6195 173.857 52.2091 164.839C51.7658 155.087 51.6772 152.159 51.6772 127.457C51.6772 102.755 51.7658 99.8412 52.2091 90.0901C52.6214 81.0713 54.1284 76.1764 55.3945 72.9157C57.0711 68.5991 59.0791 65.5157 62.3167 62.2782C65.5542 59.0407 68.6376 57.0365 72.9543 55.356C76.2149 54.0841 81.1117 52.5809 90.1306 52.1666C98.6638 51.7813 101.971 51.6656 119.21 51.6463V51.6694ZM176.885 67.0285C170.757 67.0285 165.785 71.9946 165.785 78.1247C165.785 84.2529 170.757 89.2248 176.885 89.2248C183.013 89.2248 187.985 84.2529 187.985 78.1247C187.985 71.9965 183.013 67.0246 176.885 67.0246V67.0285ZM127.508 79.9978C101.275 79.9978 80.0056 101.267 80.0056 127.501C80.0056 153.735 101.275 174.994 127.508 174.994C153.742 174.994 175.004 153.735 175.004 127.501C175.004 101.267 153.74 79.9978 127.506 79.9978H127.508ZM127.508 96.6673C144.537 96.6673 158.342 110.471 158.342 127.501C158.342 144.529 144.537 158.335 127.508 158.335C110.479 158.335 96.675 144.529 96.675 127.501C96.675 110.471 110.479 96.6673 127.508 96.6673Z" fill="white"/>
<radialGradient id="radialGradient" cx="0" cy="0" r="1" gradientUnits="userSpaceOnUse" gradientTransform="translate(68.0003 275.717) rotate(-90) scale(253.715 235.975)">
<stop stop-color="#FFDD55"/>
<stop offset="0.1" stop-color="#FFDD55"/>
<stop offset="0.5" stop-color="#FF543E"/>
<stop offset="1" stop-color="#C837AB"/>
</radialGradient>
</svg>