<svg width="256" height="256" viewBox="0 0 256 256" fill="none" xmlns="http://www.w3.org/2000/svg" id="laravel">
<style>
#laravel {
    rect {fill: #15191C}

    @media (prefers-color-scheme: light) {
        rect {fill: #F4F2ED}
    }
}
</style>
<rect width="256" height="256" rx="50" fill="#15191C"/>
<path d="M220.904 84.5911C220.967 84.8244 220.999 85.065 221 85.3067V122.871C221 123.354 220.873 123.827 220.631 124.244C220.389 124.662 220.042 125.008 219.624 125.247L188.095 143.4V179.379C188.095 180.359 187.575 181.262 186.725 181.756L120.912 219.642C120.761 219.728 120.597 219.782 120.432 219.841C120.371 219.861 120.313 219.899 120.248 219.916C119.788 220.037 119.304 220.037 118.844 219.916C118.769 219.895 118.7 219.854 118.628 219.827C118.478 219.772 118.32 219.724 118.176 219.642L52.3763 181.756C51.9583 181.515 51.611 181.169 51.3694 180.752C51.1277 180.335 51.0003 179.862 51 179.379V66.6852C51 66.4387 51.0342 66.1991 51.0959 65.9662C51.1164 65.8875 51.1643 65.8156 51.1917 65.7369C51.2431 65.5931 51.291 65.4458 51.3663 65.3123C51.4177 65.2233 51.493 65.1514 51.5546 65.0692C51.6334 64.9597 51.7053 64.8467 51.7977 64.7508C51.8765 64.6721 51.9792 64.6139 52.0682 64.5454C52.1675 64.4632 52.2565 64.3742 52.3695 64.3092L85.2746 45.3659C85.6912 45.1262 86.1634 45 86.6441 45C87.1247 45 87.5969 45.1262 88.0135 45.3659L120.915 64.3092H120.922C121.032 64.3777 121.124 64.4632 121.223 64.542C121.312 64.6105 121.412 64.6721 121.49 64.7474C121.586 64.8467 121.655 64.9597 121.737 65.0692C121.795 65.1514 121.874 65.2233 121.922 65.3123C122.001 65.4493 122.045 65.5931 122.1 65.7369C122.127 65.8156 122.175 65.8875 122.196 65.9697C122.259 66.203 122.291 66.4435 122.292 66.6852V137.073L149.708 121.286V85.3033C149.708 85.0636 149.743 84.8205 149.804 84.5911C149.828 84.509 149.873 84.4371 149.9 84.3583C149.955 84.2145 150.003 84.0673 150.078 83.9338C150.13 83.8448 150.205 83.7729 150.263 83.6907C150.345 83.5811 150.414 83.4682 150.51 83.3723C150.588 83.2936 150.688 83.2354 150.777 83.1669C150.879 83.0847 150.968 82.9957 151.078 82.9306L183.986 63.9874C184.403 63.7473 184.875 63.6209 185.356 63.6209C185.837 63.6209 186.309 63.7473 186.725 63.9874L219.627 82.9306C219.744 82.9991 219.833 83.0847 219.935 83.1635C220.021 83.2319 220.12 83.2936 220.199 83.3689C220.295 83.4682 220.363 83.5811 220.445 83.6907C220.507 83.7729 220.582 83.8448 220.63 83.9338C220.709 84.0673 220.753 84.2145 220.808 84.3583C220.839 84.4371 220.884 84.509 220.904 84.5911ZM215.515 121.286V90.0485L204.001 96.6768L188.095 105.835V137.073L215.519 121.286H215.515ZM182.614 177.794V146.536L166.967 155.472L122.288 180.971V212.524L182.614 177.794ZM56.4848 71.427V177.794L116.803 212.521V180.975L85.2917 163.141L85.2814 163.134L85.2677 163.127C85.1616 163.066 85.0726 162.977 84.9733 162.901C84.8877 162.833 84.7884 162.778 84.7131 162.703L84.7062 162.692C84.6172 162.607 84.5556 162.501 84.4803 162.405C84.4118 162.312 84.3296 162.234 84.2749 162.138L84.2714 162.127C84.2098 162.025 84.1722 161.902 84.1276 161.785C84.0831 161.682 84.0249 161.587 83.9975 161.477C83.9633 161.347 83.9565 161.207 83.9428 161.073C83.9291 160.97 83.9017 160.868 83.9017 160.765V87.2137L67.9986 78.0519L56.4848 71.427ZM86.6475 50.9054L59.234 66.6852L86.6406 82.465L114.051 66.6818L86.6406 50.9054H86.6475ZM100.904 149.385L116.807 140.23V71.427L105.293 78.0553L89.3864 87.2137V156.016L100.904 149.385ZM185.356 69.5269L157.946 85.3067L185.356 101.086L212.763 85.3033L185.356 69.5269ZM182.614 105.835L166.707 96.6768L155.193 90.0485V121.286L171.096 130.441L182.614 137.073V105.835ZM119.542 176.23L159.747 153.277L179.844 141.808L152.454 126.038L120.919 144.194L92.1767 160.741L119.542 176.23Z" fill="#FF2D20"/>
</svg>