<svg width="256" height="256" viewBox="0 0 256 256" fill="none" xmlns="http://www.w3.org/2000/svg">
<rect width="256" height="256" rx="50" fill="#0077B5"/>
<path fill-rule="evenodd" clip-rule="evenodd" d="M81.8109 67.1297C81.8109 76.4681 74.7007 84.0253 63.5817 84.0253C52.8954 84.0253 45.7845 76.4681 46.005 67.1297C45.7845 57.3374 52.8947 50 63.7947 50C74.7007 50 81.5979 57.3374 81.8109 67.1297ZM46.899 206.147V97.3727H80.7038V206.14L46.899 206.147Z" fill="white"/>
<path fill-rule="evenodd" clip-rule="evenodd" d="M107.796 132.086C107.796 118.519 107.349 106.953 106.902 97.3876H136.265L137.826 112.289H138.493C142.943 105.392 154.062 94.9464 172.079 94.9464C194.317 94.9464 211 109.628 211 141.645V206.161H177.194V145.881C177.194 131.86 172.306 122.301 160.072 122.301C150.727 122.301 145.17 128.751 142.949 134.975C142.055 137.203 141.615 140.311 141.615 143.433V206.161H107.81V132.086H107.796Z" fill="white"/>
</svg>