<svg width="256" height="256" viewBox="0 0 256 256" fill="none" xmlns="http://www.w3.org/2000/svg">
<rect width="256" height="256" rx="50" fill="#003545"/>
<path d="M220.136 68.6017C219.633 68.1876 218.995 67.9742 218.344 68.0025C216.559 68.0025 214.251 69.2135 213.008 69.8632L212.516 70.1154C210.432 71.1244 208.163 71.6955 205.85 71.7932C203.478 71.8689 201.434 72.0076 198.773 72.2852C183.004 73.9061 175.972 85.9909 169.198 97.6784C165.508 104.036 161.698 110.64 156.476 115.686C155.395 116.734 154.247 117.709 153.038 118.606C147.633 122.624 140.846 125.494 135.567 127.525C130.483 129.467 124.933 131.214 119.572 132.905C114.658 134.45 110.023 135.913 105.759 137.496C103.835 138.209 102.202 138.758 100.757 139.237C96.8718 140.499 94.0714 141.464 89.9779 144.283C88.3822 145.374 86.7801 146.554 85.6953 147.437C82.4459 150.029 79.57 153.058 77.1489 156.437C75.0669 159.554 72.6609 162.442 69.9712 165.053C69.1071 165.898 67.5744 166.315 65.2785 166.315C62.5916 166.315 59.3307 165.759 55.8806 165.173C52.3233 164.542 48.6462 163.943 45.4925 163.943C42.9317 163.943 40.9702 164.359 39.5069 165.204C39.5069 165.204 37.0407 166.643 36 168.503L37.0218 168.964C38.6063 169.823 40.0733 170.883 41.3864 172.117C42.7565 173.383 44.2826 174.468 45.9277 175.347C46.4528 175.539 46.9304 175.842 47.3279 176.236C46.899 176.867 46.2683 177.68 45.606 178.551C41.9667 183.313 39.8412 186.321 41.0585 187.961C41.6419 188.264 42.2936 188.412 42.9507 188.39C50.8852 188.39 55.149 186.328 60.5417 183.716C62.106 182.96 63.6954 182.184 65.5876 181.383C68.7412 180.014 72.1346 177.832 75.736 175.523C80.4476 172.452 85.3736 169.298 90.1546 167.778C94.0837 166.58 98.1764 166.005 102.284 166.075C107.329 166.075 112.64 166.75 117.762 167.406C121.578 167.898 125.532 168.402 129.411 168.636C130.919 168.724 132.313 168.768 133.669 168.768C135.483 168.773 137.296 168.679 139.099 168.484L139.534 168.333C142.253 166.661 143.527 163.073 144.763 159.604C145.558 157.371 146.227 155.365 147.286 154.091C147.349 154.029 147.416 153.972 147.488 153.921C147.538 153.893 147.595 153.883 147.651 153.892C147.707 153.901 147.759 153.929 147.797 153.971C147.797 153.971 147.797 154.003 147.797 154.072C147.166 167.639 141.704 176.255 136.179 183.912L132.489 187.867C132.489 187.867 137.655 187.867 140.594 186.731C151.317 183.527 159.409 176.463 165.3 165.198C166.753 162.306 168.052 159.34 169.191 156.311C169.292 156.059 170.22 155.592 170.131 156.898C170.1 157.282 170.074 157.711 170.043 158.159C170.043 158.424 170.043 158.695 169.992 158.967C169.841 160.859 169.393 164.858 169.393 164.858L172.705 163.085C180.69 158.039 186.846 147.859 191.513 132.022C193.456 125.424 194.881 118.871 196.136 113.1C197.637 106.162 198.93 100.214 200.413 97.9055C202.74 94.2851 206.291 91.8378 209.729 89.46C210.195 89.1383 210.668 88.8292 211.129 88.4886C215.449 85.4548 219.745 81.9543 220.691 75.4262V75.2811C221.378 70.4119 220.798 69.1694 220.136 68.6017Z" fill="white"/>
</svg>