<svg width="256" height="256" viewBox="0 0 256 256" fill="none" xmlns="http://www.w3.org/2000/svg" id="mysql">
<style>
#mysql {
    rect {fill: #15191C}
    path {fill: white}

    @media (prefers-color-scheme: light) {
        rect {fill: #F4F2ED}
        path {fill: #15191C}
    }
}
</style>
<rect width="256" height="256" rx="50" fill="#15191C"/>
<path d="M199.577 174.066C190.323 173.831 183.158 174.762 177.145 177.306C175.409 178 172.648 177.999 172.407 180.194C173.344 181.122 173.453 182.62 174.267 183.902C175.653 186.213 178.07 189.324 180.277 190.946C182.7 192.803 185.133 194.641 187.683 196.26C192.18 199.042 197.278 200.661 201.66 203.434C204.213 205.046 206.751 207.132 209.308 208.869C210.564 209.794 211.369 211.295 213 211.874V211.521C212.183 210.481 211.951 208.977 211.149 207.819L207.677 204.471C204.322 199.964 200.153 196.031 195.656 192.8C191.954 190.249 183.858 186.783 182.357 182.518L182.122 182.283C184.666 182.045 187.683 181.122 190.1 180.414C194.034 179.377 197.621 179.612 201.657 178.575C203.514 178.111 205.355 177.529 207.219 176.956V175.913C205.126 173.831 203.635 171.064 201.434 169.095C195.548 164.01 189.061 159.037 182.357 154.874C178.767 152.556 174.149 151.064 170.327 149.093C168.95 148.396 166.628 148.053 165.817 146.895C163.744 144.351 162.577 141.002 161.073 137.991C157.73 131.637 154.484 124.587 151.599 117.868C149.513 113.361 148.244 108.861 145.7 104.692C133.785 85.0395 120.845 73.1363 100.957 61.4529C96.6824 59.0202 91.5974 57.9834 86.1657 56.7083L77.4906 56.2502C75.6398 55.4394 73.7859 53.2388 72.1704 52.1989C65.5719 48.0393 48.5837 39.0237 43.7308 50.9269C40.6049 58.4507 48.3547 65.8477 51.0163 69.6638C52.9816 72.313 55.5288 75.3275 56.9029 78.3358C57.7169 80.3011 57.946 82.3871 58.7599 84.4638C60.6107 89.5519 62.3408 95.2126 64.7734 99.9602C66.0423 102.381 67.4258 104.925 69.0476 107.116C69.976 108.397 71.5916 108.963 71.9444 111.053C70.3319 113.355 70.2051 116.831 69.2797 119.722C65.12 132.785 66.7449 148.969 72.6408 158.569C74.4854 161.46 78.8864 167.823 84.773 165.384C89.9849 163.305 88.8305 156.715 90.3284 150.937C90.672 149.541 90.4461 148.625 91.1393 147.709V147.935C92.7518 151.169 94.3797 154.286 95.8746 157.529C99.4617 163.19 105.707 169.089 110.91 173.01C113.68 175.103 115.874 178.68 119.344 179.959V179.612H119.115C118.412 178.575 117.385 178.111 116.462 177.306C114.376 175.223 112.067 172.679 110.449 170.37C105.602 163.893 101.312 156.722 97.5056 149.322C95.6425 145.732 94.0362 141.807 92.5351 138.223C91.8357 136.84 91.8357 134.754 90.6751 134.057C88.9357 136.598 86.4009 138.799 85.132 141.912C82.9315 146.892 82.7025 153.017 81.8854 159.386L81.4305 159.609C77.7475 158.684 76.4662 154.874 75.0672 151.64C71.604 143.426 71.0221 130.241 74.0273 120.765C74.832 118.341 78.3138 110.709 76.9242 108.4C76.2278 106.187 73.9128 104.928 72.6439 103.185C71.1521 100.994 69.518 98.2209 68.4781 95.7883C65.705 89.3167 64.3092 82.1457 61.3225 75.6773C59.9267 72.6628 57.5034 69.5431 55.5412 66.7669C53.3376 63.6472 50.9142 61.4498 49.1718 57.7513C48.5961 56.4793 47.7883 54.3995 48.7137 53.016C48.9396 52.0875 49.4101 51.7409 50.3324 51.5088C51.8303 50.2429 56.1107 51.8523 57.6117 52.5487C61.8982 54.2818 65.4822 55.9005 69.0599 58.3269C70.6786 59.4876 72.4149 61.685 74.4916 62.2637H76.9242C80.6165 63.0684 84.7792 62.4866 88.2548 63.5327C94.3797 65.5011 99.929 68.3886 104.906 71.5053C120.049 81.1089 132.537 94.7545 140.968 111.053C142.352 113.708 142.94 116.141 144.202 118.911C146.638 124.581 149.649 130.362 152.067 135.911C154.496 141.343 156.811 146.889 160.281 151.401C162.011 153.828 168.962 155.1 172.079 156.372C174.384 157.409 177.974 158.331 180.054 159.603C183.988 162.026 187.906 164.809 191.605 167.474C193.446 168.86 199.234 171.751 199.577 174.066ZM81.6409 73.5913C80.0447 73.5747 78.4534 73.7703 76.9087 74.1731V74.4052H77.1316C78.0631 76.2529 79.6818 77.5342 80.8362 79.1467C81.7678 81.0006 82.5756 82.839 83.4886 84.6898L83.7114 84.4607C85.3425 83.3063 86.1534 81.4555 86.1534 78.6794C85.4508 77.8623 85.3425 77.0638 84.7575 76.2529C84.0766 75.0954 82.5756 74.5197 81.6409 73.5913Z" fill="white"/>
</svg>