<svg width="256" height="256" viewBox="0 0 256 256" fill="none" xmlns="http://www.w3.org/2000/svg" id="nextjs">
<style>
#nextjs {
    rect {fill: #15191C}
    path {fill: white}

    @media (prefers-color-scheme: light) {
        rect {fill: #F4F2ED}
        path {fill: #15191C}
    }
}
</style>
<rect width="256" height="256" rx="50" fill="#15191C"/>
<path d="M122.106 38.0484C121.718 38.0836 120.487 38.2068 119.378 38.2947C93.8123 40.5994 69.8651 54.3921 54.6979 75.5913C46.2522 87.3784 40.8504 100.749 38.8094 114.911C38.088 119.855 38 121.315 38 128.018C38 134.72 38.088 136.181 38.8094 141.124C43.7009 174.92 67.7537 203.314 100.375 213.835C106.217 215.717 112.375 217.002 119.378 217.776C122.106 218.075 133.894 218.075 136.622 217.776C148.71 216.439 158.95 213.448 169.05 208.293C170.598 207.502 170.897 207.29 170.686 207.115C170.545 207.009 163.947 198.16 156.029 187.463L141.636 168.023L123.601 141.335C113.677 126.663 105.513 114.665 105.443 114.665C105.372 114.647 105.302 126.505 105.267 140.983C105.214 166.335 105.196 167.355 104.88 167.953C104.422 168.815 104.07 169.167 103.331 169.554C102.768 169.836 102.276 169.888 99.6188 169.888H96.5748L95.7654 169.378C95.2375 169.044 94.8504 168.604 94.5865 168.094L94.217 167.302L94.2522 132.029L94.305 96.7378L94.8504 96.0516C95.132 95.6822 95.7302 95.2072 96.1525 94.9785C96.8739 94.6266 97.1554 94.5915 100.199 94.5915C103.789 94.5915 104.387 94.7322 105.32 95.7526C105.584 96.0341 115.349 110.742 127.032 128.457C138.716 146.173 154.692 170.363 162.54 182.238L176.792 203.825L177.513 203.35C183.9 199.198 190.657 193.287 196.006 187.129C207.39 174.058 214.727 158.119 217.191 141.124C217.912 136.181 218 134.72 218 128.018C218 121.315 217.912 119.855 217.191 114.911C212.299 81.1154 188.246 52.7208 155.625 42.2003C149.871 40.3355 143.748 39.0512 136.886 38.2771C135.196 38.1012 123.566 37.9077 122.106 38.0484ZM158.95 92.4803C159.795 92.9025 160.481 93.7118 160.727 94.5563C160.868 95.0137 160.903 104.795 160.868 126.839L160.815 158.471L155.238 149.921L149.642 141.371V118.377C149.642 103.511 149.713 95.1544 149.818 94.7498C150.1 93.7646 150.716 92.9905 151.56 92.5331C152.282 92.1637 152.545 92.1285 155.308 92.1285C157.912 92.1285 158.37 92.1637 158.95 92.4803Z" fill="white"/>
</svg>