<svg width="256" height="256" viewBox="0 0 256 256" fill="none" xmlns="http://www.w3.org/2000/svg" id="nodejs">
<style>
#nodejs {
    rect {fill: #15191C}

    @media (prefers-color-scheme: light) {
        rect {fill: #F4F2ED}
    }
}
</style>
<rect width="256" height="256" rx="20" fill="#15191C"/>
<path d="M128 223.558C125.36 223.558 122.896 222.854 120.609 221.622L97.2029 207.719C93.6832 205.784 95.4431 205.08 96.499 204.728C101.251 203.144 102.13 202.792 107.058 199.976C107.586 199.624 108.29 199.8 108.818 200.152L126.768 210.887C127.472 211.239 128.352 211.239 128.88 210.887L199.097 170.235C199.801 169.883 200.153 169.179 200.153 168.299V87.1708C200.153 86.2909 199.801 85.587 199.097 85.235L128.88 44.7588C128.176 44.4068 127.296 44.4068 126.768 44.7588L56.5507 85.235C55.8468 85.587 55.4948 86.4669 55.4948 87.1708V168.299C55.4948 169.003 55.8468 169.883 56.5507 170.235L75.7329 181.322C86.1159 186.601 92.6273 180.442 92.6273 174.283V94.2101C92.6273 93.1542 93.5072 92.0983 94.7391 92.0983H103.714C104.77 92.0983 105.826 92.9783 105.826 94.2101V174.283C105.826 188.185 98.2588 196.281 85.06 196.281C81.0124 196.281 77.8447 196.281 68.8696 191.881L50.3913 181.322C45.8157 178.682 43 173.755 43 168.475V87.3468C43 82.0673 45.8157 77.1398 50.3913 74.5L120.609 33.8478C125.008 31.3841 130.992 31.3841 135.391 33.8478L205.609 74.5C210.184 77.1398 213 82.0673 213 87.3468V168.475C213 173.755 210.184 178.682 205.609 181.322L135.391 221.974C133.104 223.03 130.464 223.558 128 223.558ZM149.646 167.771C118.849 167.771 112.513 153.693 112.513 141.726C112.513 140.67 113.393 139.614 114.625 139.614H123.776C124.832 139.614 125.712 140.318 125.712 141.374C127.12 150.701 131.168 155.276 149.822 155.276C164.605 155.276 170.94 151.933 170.94 144.013C170.94 139.438 169.18 136.094 146.126 133.806C126.944 131.871 114.977 127.647 114.977 112.336C114.977 98.0818 126.944 89.6346 147.006 89.6346C169.532 89.6346 180.619 97.3778 182.027 114.272C182.027 114.8 181.851 115.328 181.499 115.856C181.147 116.208 180.619 116.56 180.091 116.56H170.94C170.06 116.56 169.18 115.856 169.004 114.976C166.892 105.297 161.437 102.129 147.006 102.129C130.816 102.129 128.88 107.761 128.88 111.984C128.88 117.088 131.168 118.672 152.99 121.488C174.636 124.303 184.843 128.351 184.843 143.486C184.667 158.972 171.996 167.771 149.646 167.771Z" fill="#539E43"/>
</svg>