<svg width="256" height="256" viewBox="0 0 256 256" fill="none" xmlns="http://www.w3.org/2000/svg">
<rect width="256" height="256" rx="50" fill="#15191C"/>
<path d="M139.592 191.666H210.223C212.466 191.667 214.67 191.082 216.613 189.97C218.556 188.858 220.168 187.259 221.29 185.333C222.412 183.407 223.001 181.222 223 178.999C222.999 176.775 222.407 174.592 221.284 172.667L173.851 91.2388C172.729 89.3134 171.117 87.7145 169.175 86.6028C167.231 85.4912 165.028 84.9058 162.785 84.9058C160.542 84.9058 158.339 85.4912 156.396 86.6028C154.454 87.7145 152.842 89.3134 151.72 91.2388L139.592 112.074L115.878 71.3318C114.756 69.4068 113.143 67.808 111.2 66.6964C109.257 65.5852 107.053 65 104.81 65C102.567 65 100.363 65.5852 98.4198 66.6964C96.4766 67.808 94.8632 69.4068 93.7412 71.3318L34.7155 172.667C33.5927 174.592 33.001 176.775 33 178.999C32.9991 181.222 33.5888 183.407 34.71 185.333C35.8312 187.259 37.4444 188.858 39.3872 189.97C41.3299 191.082 43.5339 191.667 45.7772 191.666H90.1136C107.68 191.666 120.635 184.019 129.549 169.099L151.19 131.953L162.782 112.074L197.571 171.787H151.19L139.592 191.666ZM89.3908 171.767L58.4496 171.759L104.83 92.146L127.972 131.953L112.478 158.559C106.558 168.24 99.8328 171.767 89.3908 171.767Z" fill="#00DC82"/>
</svg>