<svg width="256" height="256" viewBox="0 0 256 256" fill="none" xmlns="http://www.w3.org/2000/svg">
<rect width="256" height="256" rx="50" fill="#15191C"/>
<path d="M151.97 99.2515L157.185 104.645L104.54 155.522L99.3271 150.128L151.97 99.2515Z" fill="white"/>
<path d="M153.998 101.5H201.249C204.149 101.5 206.498 103.85 206.498 106.75V201.249C206.498 204.149 204.149 206.498 201.249 206.498H106.75C103.85 206.498 101.5 204.149 101.5 201.249V153.998" fill="white"/>
<path d="M153.998 101.5V54.2498C153.998 51.3498 151.648 49 148.748 49H54.2498C51.3498 49 49 51.3498 49 54.2498V148.748C49 151.648 51.3498 153.998 54.2498 153.998H101.5" fill="white"/>
<path d="M136.501 184.624C134.084 184.624 132.124 182.667 132.124 180.251V132.124C132.124 129.71 134.084 127.75 136.501 127.75H151.759C154.808 127.75 157.617 127.982 160.186 128.447C162.816 128.855 165.086 129.611 167.001 130.717C168.913 131.822 170.405 133.275 171.481 135.077C172.619 136.88 173.185 139.149 173.185 141.881C173.185 143.16 172.977 144.439 172.558 145.721C172.2 147 171.602 148.191 170.766 149.297C169.927 150.402 168.883 151.39 167.628 152.263C166.413 153.107 164.974 153.732 163.31 154.14C163.214 154.164 163.145 154.253 163.145 154.351C163.145 154.456 163.22 154.544 163.321 154.562C167.417 155.326 170.525 156.771 172.648 158.891C174.801 161.043 175.874 164.039 175.874 167.876C175.874 170.784 175.308 173.284 174.173 175.377C173.036 177.471 171.452 179.217 169.42 180.611C167.388 181.949 164.998 182.969 162.248 183.666C159.559 184.304 156.629 184.624 153.462 184.624H136.501ZM145.305 146.228C145.305 148.645 147.262 150.605 149.678 150.605H151.131C154.36 150.605 156.691 149.993 158.125 148.773C159.559 147.553 160.277 145.836 160.277 143.625C160.277 141.531 159.529 140.049 158.034 139.179C156.6 138.247 154.327 137.782 151.222 137.782H149.678C147.262 137.782 145.305 139.74 145.305 142.156V146.228ZM145.305 170.218C145.305 172.635 147.262 174.595 149.678 174.595H152.386C159.438 174.595 162.966 172.034 162.966 166.918C162.966 164.416 162.098 162.613 160.365 161.508C158.691 160.405 156.031 159.852 152.386 159.852H149.678C147.262 159.852 145.305 161.81 145.305 164.226V170.218Z" fill="#15191C"/>
<path d="M83.9994 127.749C81.5828 127.749 79.6255 125.789 79.6255 123.375V75.2489C79.6255 72.8323 81.5828 70.875 83.9994 70.875H100.419C103.599 70.875 106.571 71.1954 109.329 71.8336C112.152 72.4157 114.582 73.4331 116.622 74.8884C118.723 76.2823 120.374 78.1729 121.573 80.5575C122.774 82.8833 123.375 85.7618 123.375 89.1932C123.375 92.507 122.745 95.3856 121.484 97.8289C120.283 100.272 118.633 102.277 116.531 103.847C114.432 105.417 112.002 106.582 109.241 107.337C106.48 108.093 103.54 108.472 100.419 108.472H97.2334C94.8167 108.472 92.8568 110.429 92.8568 112.846V123.375C92.8568 125.789 90.8994 127.749 88.4828 127.749H83.9994ZM92.8568 93.8902C92.8568 96.3068 94.8167 98.2641 97.2334 98.2641H99.6099C106.811 98.2641 110.411 95.2414 110.411 89.1932C110.411 86.2265 109.481 84.133 107.62 82.9126C105.821 81.6923 103.15 81.0808 99.6099 81.0808H97.2334C94.8167 81.0808 92.8568 83.0382 92.8568 85.4548V93.8902Z" fill="#15191C"/>
</svg>