<svg width="256" height="256" viewBox="0 0 256 256" fill="none" xmlns="http://www.w3.org/2000/svg" id="reactjs">
<style>
#reactjs {
    rect {fill: #15191C}

    @media (prefers-color-scheme: light) {
        rect {fill: #F4F2ED}
    }
}
</style>
<rect width="256" height="256" rx="50" fill="#15191C"/>
<path d="M226 127.848C226 114.93 209.823 102.688 185.021 95.096C190.744 69.8168 188.2 49.7046 176.992 43.2656C174.408 41.7552 171.387 41.0397 168.088 41.0397V49.9034C169.917 49.9034 171.387 50.2611 172.619 50.9368C178.025 54.0371 180.37 65.842 178.542 81.0255C178.105 84.7617 177.389 88.6967 176.515 92.7112C168.724 90.8033 160.218 89.3327 151.275 88.3787C145.909 81.0255 140.345 74.3479 134.74 68.5051C147.698 56.4617 159.861 49.8636 168.128 49.8636V41C157.198 41 142.889 48.7905 128.421 62.3045C113.953 48.87 99.6435 41.159 88.713 41.159V50.0226C96.9407 50.0226 109.143 56.5809 122.101 68.5448C116.536 74.3877 110.971 81.0255 105.685 88.3787C96.7022 89.3327 88.1963 90.8033 80.4058 92.7509C79.4916 88.7762 78.8159 84.9207 78.339 81.2242C76.4709 66.0408 78.7762 54.2358 84.1421 51.0958C85.3345 50.3804 86.8846 50.0624 88.713 50.0624V41.1987C85.3742 41.1987 82.3534 41.9142 79.7301 43.4246C68.5611 49.8636 66.0571 69.936 71.8204 95.1358C47.0976 102.767 31 114.97 31 127.848C31 140.766 47.1771 153.008 71.9794 160.599C66.2558 185.879 68.7996 205.991 80.0084 212.43C82.5919 213.94 85.6127 214.656 88.9515 214.656C99.882 214.656 114.191 206.865 128.659 193.351C143.127 206.786 157.436 214.497 168.366 214.497C171.705 214.497 174.726 213.781 177.349 212.271C188.518 205.832 191.022 185.759 185.259 160.56C209.902 152.968 226 140.726 226 127.848ZM174.249 101.336C172.778 106.464 170.95 111.75 168.883 117.036C167.254 113.857 165.544 110.677 163.676 107.497C161.848 104.317 159.9 101.217 157.953 98.1963C163.597 99.031 169.042 100.064 174.249 101.336ZM156.045 143.667C152.945 149.033 149.765 154.121 146.466 158.851C140.543 159.367 134.542 159.646 128.5 159.646C122.498 159.646 116.496 159.367 110.614 158.89C107.315 154.16 104.095 149.113 100.995 143.786C97.9741 138.58 95.2316 133.293 92.7275 127.967C95.1918 122.641 97.9741 117.315 100.955 112.108C104.055 106.742 107.235 101.654 110.534 96.9244C116.457 96.4077 122.458 96.1294 128.5 96.1294C134.502 96.1294 140.504 96.4077 146.386 96.8846C149.685 101.615 152.905 106.662 156.005 111.989C159.026 117.195 161.768 122.482 164.273 127.808C161.768 133.134 159.026 138.46 156.045 143.667ZM168.883 138.5C171.03 143.826 172.858 149.152 174.368 154.319C169.161 155.591 163.676 156.665 157.992 157.499C159.94 154.439 161.888 151.299 163.716 148.079C165.544 144.899 167.254 141.68 168.883 138.5ZM128.58 180.91C124.883 177.095 121.187 172.842 117.53 168.191C121.107 168.35 124.764 168.469 128.46 168.469C132.196 168.469 135.893 168.39 139.51 168.191C135.933 172.842 132.236 177.095 128.58 180.91ZM99.0075 157.499C93.3634 156.665 87.9181 155.631 82.7112 154.359C84.1818 149.232 86.0102 143.945 88.077 138.659C89.7067 141.839 91.4158 145.019 93.2839 148.198C95.1521 151.378 97.0599 154.478 99.0075 157.499ZM128.381 74.7852C132.077 78.6009 135.774 82.8539 139.43 87.5043C135.853 87.3453 132.196 87.2261 128.5 87.2261C124.764 87.2261 121.067 87.3055 117.45 87.5043C121.028 82.8539 124.724 78.6009 128.381 74.7852ZM98.9678 98.1963C97.0202 101.257 95.0726 104.397 93.2442 107.616C91.4158 110.796 89.7067 113.976 88.077 117.156C85.9307 111.83 84.1023 106.503 82.5919 101.336C87.7988 100.104 93.2839 99.031 98.9678 98.1963ZM62.9965 147.96C48.926 141.958 39.8239 134.088 39.8239 127.848C39.8239 121.607 48.926 113.698 62.9965 107.736C66.4148 106.265 70.151 104.953 74.0065 103.721C76.2721 111.512 79.2532 119.62 82.9497 127.927C79.2929 136.195 76.3516 144.263 74.1258 152.014C70.1908 150.782 66.4546 149.431 62.9965 147.96ZM84.3806 204.759C78.9749 201.658 76.6298 189.853 78.4582 174.67C78.8954 170.934 79.6109 166.999 80.4853 162.984C88.2758 164.892 96.7817 166.363 105.725 167.317C111.091 174.67 116.655 181.348 122.26 187.19C109.302 199.234 97.1394 205.832 88.872 205.832C87.0834 205.792 85.573 205.434 84.3806 204.759ZM178.661 174.471C180.529 189.655 178.224 201.46 172.858 204.6C171.666 205.315 170.115 205.633 168.287 205.633C160.059 205.633 147.857 199.075 134.899 187.111C140.464 181.268 146.029 174.63 151.315 167.277C160.298 166.323 168.804 164.852 176.594 162.905C177.508 166.919 178.224 170.775 178.661 174.471ZM193.964 147.96C190.545 149.431 186.809 150.742 182.954 151.974C180.688 144.184 177.707 136.075 174.011 127.768C177.667 119.501 180.609 111.432 182.834 103.681C186.769 104.914 190.506 106.265 194.003 107.736C208.074 113.737 217.176 121.607 217.176 127.848C217.136 134.088 208.034 141.998 193.964 147.96Z" fill="#61DAFB"/>
<path d="M128.46 146.012C138.492 146.012 146.625 137.88 146.625 127.848C146.625 117.816 138.492 109.683 128.46 109.683C118.428 109.683 110.296 117.816 110.296 127.848C110.296 137.88 118.428 146.012 128.46 146.012Z" fill="#61DAFB"/>
</svg>