<svg width="256" height="256" viewBox="0 0 256 256" fill="none" xmlns="http://www.w3.org/2000/svg" id="redis">
<style>
#redis {
    rect {fill: #15191C}

    @media (prefers-color-scheme: light) {
        rect {fill: #F4F2ED}
    }
}
</style>
<rect width="256" height="256" rx="50" fill="#15191C"/>
<path d="M215.556 171.954C205.416 177.239 152.89 198.836 141.707 204.666C130.525 210.496 124.313 210.44 115.479 206.217C106.645 201.994 50.7479 179.415 40.6787 174.602C35.6466 172.197 33 170.167 33 168.249V149.044C33 149.044 105.771 133.202 117.52 128.987C129.267 124.772 133.343 124.62 143.34 128.282C153.339 131.946 213.119 142.731 223 146.35L222.996 165.283C222.997 167.182 220.717 169.264 215.556 171.954Z" fill="#912626"/>
<path d="M215.552 152.863C205.413 158.146 152.889 179.743 141.706 185.572C130.524 191.404 124.312 191.347 115.479 187.124C106.644 182.903 50.7494 160.321 40.6809 155.511C30.6124 150.698 30.4016 147.385 40.292 143.513C50.1824 139.638 105.771 117.829 117.52 113.614C129.268 109.401 133.343 109.247 143.34 112.911C153.338 116.573 205.55 137.355 215.429 140.973C225.312 144.595 225.691 147.578 215.552 152.863Z" fill="#C6302B"/>
<path d="M215.556 140.879C205.416 146.165 152.89 167.761 141.707 173.593C130.525 179.422 124.313 179.365 115.479 175.142C106.644 170.922 50.7479 148.341 40.6787 143.527C35.6466 141.123 33 139.095 33 137.177V117.969C33 117.969 105.771 102.128 117.52 97.9133C129.267 93.6984 133.343 93.5455 143.34 97.2082C153.34 100.871 213.12 111.654 223 115.274L222.996 134.209C222.997 136.107 220.717 138.19 215.556 140.879Z" fill="#912626"/>
<path d="M215.552 121.788C205.413 127.072 152.889 148.669 141.706 154.5C130.524 160.329 124.312 160.272 115.479 156.049C106.644 151.829 50.7494 129.247 40.6809 124.436C30.6124 119.625 30.4016 116.311 40.292 112.437C50.1824 108.565 105.771 86.7545 117.52 82.5404C129.268 78.3262 133.343 78.1733 143.34 81.836C153.338 85.498 205.55 106.279 215.429 109.898C225.312 113.52 225.691 116.504 215.552 121.788Z" fill="#C6302B"/>
<path d="M215.556 108.653C205.416 113.937 152.89 135.535 141.707 141.367C130.525 147.196 124.313 147.139 115.479 142.916C106.644 138.695 50.7479 116.113 40.6787 111.302C35.6466 108.895 33 106.867 33 104.951V85.7429C33 85.7429 105.771 69.9024 117.52 65.6883C129.267 61.4726 133.343 61.3212 143.34 64.9832C153.34 68.6459 213.12 79.4291 223 83.0488L222.996 101.983C222.997 103.88 220.717 105.962 215.556 108.653Z" fill="#912626"/>
<path d="M215.552 89.5615C205.413 94.8458 152.889 116.443 141.706 122.273C130.524 128.102 124.312 128.045 115.479 123.824C106.645 119.601 50.7495 97.0205 40.6817 92.2089C30.6124 87.398 30.4024 84.0841 40.292 80.2106C50.1824 76.3379 105.772 54.5302 117.52 50.3146C129.268 46.0997 133.343 45.9483 143.34 49.611C153.338 53.2737 205.55 74.0542 215.429 77.6738C225.312 81.2928 225.691 84.2771 215.552 89.5615Z" fill="#C6302B"/>
<path d="M151.218 70.8784L134.882 72.5743L131.226 81.3736L125.319 71.5545L106.457 69.8593L120.531 64.7835L116.308 56.992L129.486 62.1458L141.909 58.0786L138.551 66.135L151.218 70.8784ZM130.25 113.568L99.7635 100.923L143.449 94.2172L130.25 113.568ZM87.9827 75.7694C100.878 75.7694 111.332 79.8217 111.332 84.8196C111.332 89.819 100.878 93.8706 87.9827 93.8706C75.0872 93.8706 64.6335 89.8182 64.6335 84.8196C64.6335 79.8217 75.0872 75.7694 87.9827 75.7694Z" fill="white"/>
<path d="M170.524 73.3598L196.378 83.5768L170.546 93.7841L170.524 73.3598Z" fill="#621B1C"/>
<path d="M141.92 84.5985L170.524 73.2838L170.546 93.7081L167.741 94.805L141.92 84.5985Z" fill="#9A2928"/>
</svg>