<svg width="256" height="256" viewBox="0 0 256 256" fill="none" xmlns="http://www.w3.org/2000/svg" id="sqlite">
<style>
#sqlite {
    rect {fill: #15191C}

    @media (prefers-color-scheme: light) {
        rect {fill: #F4F2ED}
    }
}
</style>
<rect width="256" height="256" rx="50" fill="#15191C"/>
<path d="M173.431 48.7422H63.6259C56.2575 48.7422 50.2773 54.7757 50.2773 62.0908V183.189C50.2773 190.558 56.3108 196.538 63.6259 196.538H135.975C135.174 160.55 147.455 90.7101 173.458 48.6354L173.431 48.7422Z" fill="#0F80CC"/>
<path d="M169.427 52.6667H63.6259C58.3932 52.6667 54.1484 56.9382 54.1484 62.1442V174.406C78.1224 165.195 114.084 157.266 138.965 157.64C146.636 121.973 156.798 86.8938 169.427 52.6667Z" fill="url(#linearGradient)"/>
<path d="M199.061 44.791C191.532 38.1167 182.428 40.7864 173.431 48.7422L169.427 52.64C154.049 68.9252 140.06 99.1464 135.361 122.24C137.035 125.897 138.358 129.705 139.312 133.613L139.9 136.282L140.487 139.005C140.487 139.005 140.354 138.471 139.793 136.87L139.419 135.802C139.344 135.604 139.264 135.408 139.179 135.214C138.164 132.892 135.441 127.953 134.186 125.817C133.215 128.656 132.298 131.513 131.437 134.387C134.961 140.847 137.096 151.9 137.096 151.9C137.096 151.9 136.91 151.179 136.029 148.696C135.228 146.481 131.33 139.619 130.422 138.018C128.82 143.891 128.206 147.842 128.767 148.803C129.835 150.672 130.903 154.143 131.837 157.453C133.279 163.324 134.455 169.257 135.361 175.233L135.495 176.889C135.218 183.565 135.352 190.252 135.895 196.912C136.589 205.268 137.897 212.449 139.553 216.294L140.674 215.68C138.271 208.098 137.257 198.193 137.684 186.74C138.351 169.253 142.356 148.162 149.804 126.191C162.432 92.7391 179.839 66.0953 195.804 53.3875C181.254 66.5225 161.578 109.024 155.704 124.749C149.11 142.369 144.438 158.921 141.608 174.753C146.467 159.909 162.165 153.502 162.165 153.502C162.165 153.502 169.907 143.998 178.878 130.409L161.658 135.001L156.105 137.457C156.105 137.457 170.254 128.834 182.455 124.909C199.194 98.5591 217.428 61.103 199.061 44.7643" fill="#003B57"/>
<linearGradient id="linearGradient" x1="120.651" y1="55.1495" x2="120.651" y2="167.651" gradientUnits="userSpaceOnUse">
<stop stop-color="#97D9F6"/>
<stop offset="0.92024" stop-color="#0F80CC"/>
<stop offset="1" stop-color="#0F80CC"/>
</linearGradient>
</svg>