<svg width="256" height="256" viewBox="0 0 256 256" fill="none" xmlns="http://www.w3.org/2000/svg" id="sublime">
<style>
#sublime {
    rect {fill: #15191C}

    @media (prefers-color-scheme: light) {
        rect {fill: #F4F2ED}
    }
}
</style>
<rect width="256" height="256" rx="50" fill="#15191C"/>
<path d="M200.981 128.724C200.981 126.516 199.349 125.244 197.348 125.876L59.6331 169.546C57.6273 170.181 56 172.49 56 174.693V219.325C56 221.533 57.6273 222.809 59.6331 222.173L197.348 178.508C199.349 177.871 200.981 175.563 200.981 173.355V128.724Z" fill="url(#linearGradient)"/>
<path d="M56 127.302C56 129.51 57.6273 131.817 59.6331 132.454L197.367 176.127C199.373 176.763 201 175.487 201 173.283V128.648C201 126.444 199.373 124.137 197.367 123.5L59.6331 79.8267C57.6273 79.1902 56 80.463 56 82.6702V127.302Z" fill="#FF9800"/>
<path d="M200.981 37.0112C200.981 34.8041 199.349 33.5273 197.348 34.1636L59.6331 77.8288C57.6273 78.4653 56 80.7732 56 82.9804V127.612C56 129.82 57.6273 131.092 59.6331 130.46L197.348 86.7907C199.349 86.1544 200.981 83.8463 200.981 81.6432V37.0112Z" fill="#FF9800"/>
<linearGradient id="linearGradient" x1="8046.89" y1="5795.45" x2="8654.95" y2="3762.24" gradientUnits="userSpaceOnUse">
<stop stop-color="#FF9700"/>
<stop offset="0.53" stop-color="#F48E00"/>
<stop offset="1" stop-color="#D06F00"/>
</linearGradient>
</svg>