<svg width="256" height="256" viewBox="0 0 256 256" fill="none" xmlns="http://www.w3.org/2000/svg" id="vim">
<style>
#vim {
    rect {fill: #15191C}

    @media (prefers-color-scheme: light) {
        rect {fill: #F4F2ED}
    }
}
</style>
<rect width="256" height="256" rx="50" fill="#15191C"/>
<path d="M131.538 47.8434C125.089 41.3855 114.623 41.3855 108.174 47.8435L42.8279 113.278C36.3907 119.724 36.3907 130.165 42.8279 136.611L107.806 201.675C114.255 208.133 124.721 208.133 131.17 201.675L196.516 136.24C202.953 129.795 202.953 119.353 196.516 112.907L131.538 47.8434Z" fill="#019833" stroke="black" stroke-width="0.85"/>
<path d="M154.366 48.9282L152.032 51.2643V59.8412L154.076 61.8869H164.873V70.1741L93.4558 142.658V61.9903H105.325L107.76 59.552V50.8728L105.512 49.1334H43.0528L41.0096 51.1791V60.0459L43.0873 62.1261H53.9506V201.52C53.9506 206.773 57.8146 211.225 63.0146 211.964C66.3596 212.44 69.73 211.284 72.0796 208.856L218 58.0843V51.2654L215.667 48.9294L154.366 48.9282Z" fill="white" stroke="black" stroke-width="0.85"/>
</svg>