<svg width="256" height="256" viewBox="0 0 256 256" fill="none" xmlns="http://www.w3.org/2000/svg" id="vscode">
<style>
#vscode {
    rect {fill: #15191C}

    @media (prefers-color-scheme: light) {
        rect {fill: #F4F2ED}
    }
}
</style>
<rect width="256" height="256" rx="50" fill="#15191C"/>
<path d="M43.1442 103.187C43.1442 103.187 38.8832 100.115 43.9964 96.0142L55.9094 85.3618C55.9094 85.3618 59.3182 81.7754 62.9223 84.9002L172.856 168.131V208.043C172.856 208.043 172.803 214.31 164.76 213.618L43.1442 103.187Z" fill="#2489CA"/>
<path d="M71.4798 128.913L43.1442 154.674C43.1442 154.674 40.2325 156.84 43.1442 160.71L56.3 172.677C56.3 172.677 59.4247 176.032 64.0408 172.215L94.0808 149.436L71.4798 128.913Z" fill="#1070B3"/>
<path d="M121.227 129.126L173.193 89.4452L172.856 49.747C172.856 49.747 170.637 41.083 163.233 45.5925L94.0807 108.531L121.227 129.126Z" fill="#0877B9"/>
<path d="M164.76 213.671C167.778 216.76 171.435 215.748 171.435 215.748L211.933 195.792C217.117 192.259 216.389 187.874 216.389 187.874V68.7084C216.389 63.471 211.027 61.66 211.027 61.66L175.927 44.7404C168.257 40 163.233 45.5926 163.233 45.5926C163.233 45.5926 169.696 40.941 172.856 49.747V207.315C172.856 208.398 172.625 209.463 172.163 210.422C171.24 212.286 169.234 214.026 164.423 213.298L164.76 213.671Z" fill="#3C99D4"/>
</svg>